<svg width="105" height="105" viewBox="0 0 105 105" fill="none" xmlns="http://www.w3.org/2000/svg">
<rect width="105" height="105" rx="22" fill="white"/>
<rect width="105" height="105" rx="22" fill="url(#paint0_radial_70_9)"/>
<path d="M89.6885 40.9733H57.9512C56.3671 40.9733 55.5748 40.973 54.9375 41.194C53.7787 41.5958 52.8678 42.5069 52.4658 43.6656C52.2448 44.3031 52.2451 45.0958 52.2451 46.6803C52.2451 48.2644 52.2449 49.0566 52.4658 49.694C52.8677 50.8529 53.7786 51.7638 54.9375 52.1656C55.5749 52.3867 56.367 52.3873 57.9512 52.3873H89.6875C89.6336 72.9659 72.9359 89.6313 52.3447 89.6315C31.7201 89.6315 15.0002 72.9123 15 52.2877C15 31.663 31.72 14.943 52.3447 14.943H89.6885V40.9733Z" fill="white"/>
<path d="M89.6885 40.9733H57.9512C56.3671 40.9733 55.5748 40.973 54.9375 41.194C53.7787 41.5958 52.8678 42.5069 52.4658 43.6656C52.2448 44.3031 52.2451 45.0958 52.2451 46.6803C52.2451 48.2644 52.2449 49.0566 52.4658 49.694C52.8677 50.8529 53.7786 51.7638 54.9375 52.1656C55.5749 52.3867 56.367 52.3873 57.9512 52.3873H89.6875C89.6336 72.9659 72.9359 89.6313 52.3447 89.6315C31.7201 89.6315 15.0002 72.9123 15 52.2877C15 31.663 31.72 14.943 52.3447 14.943H89.6885V40.9733Z" fill="url(#paint1_linear_70_9)" fill-opacity="0.2"/>
<path d="M57.0047 44.1638H60.9211V45.2692H59.5077V49.9751H58.3628V45.2692H57.0047V44.1638ZM66.1318 44.1638H70.0955V45.2692H67.2767V46.5088H69.7718V47.6142H67.2767V48.8697H70.2061V49.9751H66.1318V44.1638ZM79.8549 49.4935C79.7918 49.5461 79.6733 49.6172 79.4996 49.7066C79.3312 49.7961 79.1233 49.8751 78.8759 49.9435C78.6284 50.0119 78.3547 50.0435 78.0547 50.0383C77.5967 50.0277 77.1861 49.9461 76.8229 49.7935C76.465 49.6356 76.1597 49.4224 75.907 49.1539C75.6596 48.8855 75.4701 48.5775 75.3385 48.2301C75.2069 47.8827 75.1411 47.5116 75.1411 47.1168C75.1411 46.6746 75.2069 46.2693 75.3385 45.9008C75.4754 45.5324 75.6675 45.2139 75.9149 44.9454C76.1676 44.677 76.4676 44.4691 76.815 44.3217C77.1625 44.1743 77.5467 44.1006 77.9678 44.1006C78.3574 44.1006 78.7021 44.1532 79.0022 44.2585C79.3022 44.3638 79.547 44.477 79.7365 44.598L79.2864 45.6798C79.1548 45.5797 78.9785 45.4771 78.7574 45.3718C78.5416 45.2613 78.2916 45.206 78.0073 45.206C77.7862 45.206 77.573 45.2534 77.3677 45.3481C77.1677 45.4376 76.9887 45.5666 76.8308 45.735C76.6782 45.9035 76.5571 46.1009 76.4676 46.3272C76.3781 46.5483 76.3334 46.7904 76.3334 47.0536C76.3334 47.3326 76.3729 47.5879 76.4518 47.8195C76.536 48.0511 76.6545 48.2512 76.8071 48.4196C76.9598 48.5828 77.1414 48.7091 77.352 48.7986C77.5678 48.8881 77.8099 48.9328 78.0784 48.9328C78.3889 48.9328 78.6548 48.8828 78.8759 48.7828C79.0969 48.6828 79.2654 48.5775 79.3812 48.467L79.8549 49.4935ZM89.9953 44.1638V49.9751H88.8504V47.6142H86.2527V49.9751H85.1078V44.1638H86.2527V46.5088H88.8504V44.1638H89.9953Z" fill="white"/>
<defs>
<radialGradient id="paint0_radial_70_9" cx="0" cy="0" r="1" gradientUnits="userSpaceOnUse" gradientTransform="translate(64.7453 26.6019) rotate(115.598) scale(108.156 293.035)">
<stop stop-color="#6600CE"/>
<stop offset="1" stop-color="#330068"/>
</radialGradient>
<linearGradient id="paint1_linear_70_9" x1="52.3444" y1="14.943" x2="52.3444" y2="89.6317" gradientUnits="userSpaceOnUse">
<stop stop-color="white"/>
<stop offset="1" stop-color="#6600CE" stop-opacity="0"/>
</linearGradient>
</defs>
</svg>
