<svg width="71" height="72" viewBox="0 0 71 72" fill="none" xmlns="http://www.w3.org/2000/svg">
<path d="M70.7051 25.5876H40.6611C39.1612 25.5876 38.411 25.5884 37.8076 25.7976C36.7105 26.1781 35.8482 27.0403 35.4678 28.1375C35.2586 28.7408 35.2588 29.4912 35.2588 30.991C35.2588 32.4904 35.2587 33.2402 35.4678 33.8435C35.8482 34.9406 36.7105 35.8029 37.8076 36.1833C38.411 36.3926 39.1612 36.3933 40.6611 36.3933H70.7041C70.6531 55.8745 54.8457 71.6511 35.3525 71.6511C15.8279 71.6511 0 55.8233 0 36.2986C6.39142e-05 16.7739 15.8279 0.946109 35.3525 0.946045H70.7051V25.5876Z" fill="url(#paint0_radial_69_2)"/>
<path d="M70.7051 25.5876H40.6611C39.1612 25.5876 38.411 25.5884 37.8076 25.7976C36.7105 26.1781 35.8482 27.0403 35.4678 28.1375C35.2586 28.7408 35.2588 29.4912 35.2588 30.991C35.2588 32.4904 35.2587 33.2402 35.4678 33.8435C35.8482 34.9406 36.7105 35.8029 37.8076 36.1833C38.411 36.3926 39.1612 36.3933 40.6611 36.3933H70.7041C70.6531 55.8745 54.8457 71.6511 35.3525 71.6511C15.8279 71.6511 0 55.8233 0 36.2986C6.39142e-05 16.7739 15.8279 0.946109 35.3525 0.946045H70.7051V25.5876Z" fill="url(#paint1_linear_69_2)" fill-opacity="0.2"/>
<path d="M39.7645 27.9284H43.472V28.9749H42.134V33.4298H41.0501V28.9749H39.7645V27.9284ZM48.4048 27.9284H52.1571V28.9749H49.4887V30.1484H51.8507V31.1949H49.4887V32.3833H52.2618V33.4298H48.4048V27.9284ZM61.396 32.9739C61.3362 33.0237 61.2241 33.091 61.0597 33.1757C60.9002 33.2604 60.7034 33.3351 60.4692 33.3999C60.235 33.4647 59.9758 33.4946 59.6918 33.4896C59.2583 33.4796 58.8696 33.4024 58.5257 33.2579C58.1869 33.1084 57.8979 32.9066 57.6587 32.6524C57.4245 32.3983 57.2451 32.1068 57.1205 31.7779C56.9959 31.449 56.9336 31.0977 56.9336 30.724C56.9336 30.3054 56.9959 29.9217 57.1205 29.5728C57.25 29.224 57.4319 28.9225 57.6661 28.6684C57.9053 28.4143 58.1894 28.2174 58.5183 28.0779C58.8471 27.9384 59.2109 27.8686 59.6096 27.8686C59.9783 27.8686 60.3047 27.9184 60.5888 28.0181C60.8728 28.1178 61.1045 28.2249 61.2839 28.3395L60.8578 29.3636C60.7333 29.2689 60.5663 29.1717 60.357 29.072C60.1527 28.9674 59.916 28.9151 59.6469 28.9151C59.4376 28.9151 59.2358 28.9599 59.0415 29.0496C58.8521 29.1343 58.6827 29.2564 58.5332 29.4159C58.3887 29.5753 58.2741 29.7622 58.1894 29.9765C58.1047 30.1858 58.0623 30.415 58.0623 30.6642C58.0623 30.9283 58.0997 31.1699 58.1744 31.3892C58.2541 31.6085 58.3663 31.7978 58.5108 31.9573C58.6553 32.1118 58.8272 32.2314 59.0265 32.3161C59.2308 32.4008 59.4601 32.4431 59.7142 32.4431C60.0082 32.4431 60.2599 32.3958 60.4692 32.3011C60.6785 32.2064 60.8379 32.1068 60.9475 32.0021L61.396 32.9739ZM70.9956 27.9284V33.4298H69.9117V31.1949H67.4525V33.4298H66.3687V27.9284H67.4525V30.1484H69.9117V27.9284H70.9956Z" fill="#6600CE"/>
<defs>
<radialGradient id="paint0_radial_69_2" cx="0" cy="0" r="1" gradientUnits="userSpaceOnUse" gradientTransform="translate(43.5985 18.8593) rotate(115.598) scale(72.8305 197.325)">
<stop stop-color="#6600CE"/>
<stop offset="1" stop-color="#330068"/>
</radialGradient>
<linearGradient id="paint1_linear_69_2" x1="35.3527" y1="0.946045" x2="35.3527" y2="71.6514" gradientUnits="userSpaceOnUse">
<stop stop-color="white"/>
<stop offset="1" stop-color="#6600CE" stop-opacity="0"/>
</linearGradient>
</defs>
</svg>
