<svg width="59" height="51" viewBox="0 0 59 51" fill="none" xmlns="http://www.w3.org/2000/svg">
<path d="M49.9678 18.376H28.7354C27.6757 18.376 27.1451 18.3757 26.7188 18.5234C25.9434 18.7923 25.3333 19.4024 25.0645 20.1777C24.9167 20.6041 24.917 21.1347 24.917 22.1943C24.917 23.2537 24.9168 23.7837 25.0645 24.21C25.3333 24.9853 25.9434 25.5954 26.7188 25.8643C27.1451 26.012 27.6757 26.0117 28.7354 26.0117H49.9668C49.9312 39.7795 38.7595 50.9297 24.9834 50.9297C11.1854 50.9295 0 39.7433 0 25.9453C0.000197924 12.1475 11.1855 0.962112 24.9834 0.961914H49.9678V18.376Z" fill="white"/>
<path d="M28.101 20.4969H30.7211V21.2365H29.7755V24.3848H29.0096V21.2365H28.101V20.4969ZM34.2071 20.4969H36.8589V21.2365H34.9731V22.0658H36.6423V22.8053H34.9731V23.6452H36.9328V24.3848H34.2071V20.4969ZM43.388 24.0625C43.3458 24.0978 43.2665 24.1453 43.1503 24.2052C43.0376 24.265 42.8985 24.3179 42.733 24.3636C42.5675 24.4094 42.3844 24.4305 42.1836 24.427C41.8773 24.42 41.6026 24.3654 41.3596 24.2633C41.1201 24.1576 40.9159 24.015 40.7468 23.8354C40.5813 23.6558 40.4545 23.4498 40.3665 23.2174C40.2784 22.9849 40.2344 22.7367 40.2344 22.4725C40.2344 22.1767 40.2784 21.9056 40.3665 21.659C40.458 21.4125 40.5866 21.1995 40.7521 21.0199C40.9211 20.8403 41.1219 20.7012 41.3543 20.6026C41.5867 20.504 41.8438 20.4547 42.1255 20.4547C42.3861 20.4547 42.6168 20.4899 42.8175 20.5603C43.0183 20.6307 43.182 20.7065 43.3088 20.7874L43.0077 21.5111C42.9196 21.4442 42.8017 21.3756 42.6538 21.3051C42.5094 21.2312 42.3421 21.1942 42.1519 21.1942C42.004 21.1942 41.8614 21.2259 41.7241 21.2893C41.5902 21.3491 41.4705 21.4354 41.3649 21.5481C41.2627 21.6608 41.1817 21.7929 41.1219 21.9443C41.062 22.0922 41.0321 22.2542 41.0321 22.4303C41.0321 22.6169 41.0585 22.7877 41.1113 22.9427C41.1677 23.0976 41.2469 23.2314 41.349 23.3441C41.4511 23.4533 41.5726 23.5378 41.7135 23.5977C41.8579 23.6576 42.0199 23.6875 42.1995 23.6875C42.4073 23.6875 42.5851 23.654 42.733 23.5871C42.8809 23.5202 42.9936 23.4498 43.0711 23.3758L43.388 24.0625ZM50.172 20.4969V24.3848H49.4061V22.8053H47.6682V24.3848H46.9022V20.4969H47.6682V22.0658H49.4061V20.4969H50.172Z" fill="white"/>
<path d="M52.6539 2.57363V2.18151H54.7141V2.57363H53.916V4.76367H53.452V2.57363H52.6539ZM55.3598 2.18151H55.9322L56.6988 4.05257H56.729L57.4956 2.18151H58.068V4.76367H57.6192V2.9897H57.5952L56.8816 4.75611H56.5462L55.8326 2.98592H55.8086V4.76367H55.3598V2.18151Z" fill="white"/>
</svg>
